<?xml version="1.0" encoding="utf-8"?>
<svg xmlns="http://www.w3.org/2000/svg" style="margin: auto; background: none; display: block; --darkreader-inline-bgimage: initial; --darkreader-inline-bgcolor:#181a1b; shape-rendering: crispedges;" width="169" height="46" preserveAspectRatio="xMidYMid" data-darkreader-inline-bgimage="" data-darkreader-inline-bgcolor="">
<style type="text/css">
  text {
    text-anchor: middle; font-size: 21px; opacity: 0;
  }
</style><style class="darkreader darkreader--sync" media="screen"></style>
<g style="transform-origin: 84.5px 23px; transform: scale(0.5);">
<g transform="translate(84.5,23)">
  <g transform="translate(0,0)"><g class="path" style="transform: scale(0.91); transform-origin: -74.17px -2.07152px; animation: 0.70922s linear -0.607903s infinite normal forwards running breath-82572646-a8c2-4063-afeb-c8ef7a272912;"><path d="M0.80 0L10.63-28.64L14.99-28.64L24.82 0L21.17 0L18.65-7.64L7.01-7.64L4.45 0L0.80 0zM8.11-11.00L17.51-11.00L12.89-25.28L12.77-25.28L8.11-11.00" fill="#632a2a" stroke="none" stroke-width="none" transform="translate(-86.98001098632812,12.248481009347088)" data-darkreader-inline-fill="" data-darkreader-inline-stroke="" style="--darkreader-inline-fill:#c78f8f; --darkreader-inline-stroke:none; fill: rgb(99, 42, 42);"></path></g><g class="path" style="transform: scale(0.91); transform-origin: -49.515px -3.39652px; animation: 0.70922s linear -0.506586s infinite normal forwards running breath-82572646-a8c2-4063-afeb-c8ef7a272912;"><path d="M28.60-1.26L28.60-31.46L31.96-31.84L31.96-19.32L31.96-19.32Q32.89-19.95 33.89-20.41L33.89-20.41L33.89-20.41Q34.73-20.83 35.78-21.19L35.78-21.19L35.78-21.19Q36.83-21.55 37.88-21.55L37.88-21.55L37.88-21.55Q39.61-21.55 41.14-20.87L41.14-20.87L41.14-20.87Q42.67-20.20 43.83-18.86L43.83-18.86L43.83-18.86Q44.98-17.51 45.65-15.46L45.65-15.46L45.65-15.46Q46.33-13.40 46.33-10.58L46.33-10.58L46.33-10.58Q46.33-7.48 45.47-5.36L45.47-5.36L45.47-5.36Q44.60-3.23 43.16-1.93L43.16-1.93L43.16-1.93Q41.71-0.63 39.86-0.04L39.86-0.04L39.86-0.04Q38.01 0.55 36.08 0.55L36.08 0.55L36.08 0.55Q34.15 0.55 32.74 0.27L32.74 0.27L32.74 0.27Q31.33 0 30.41-0.34L30.41-0.34L30.41-0.34Q29.32-0.76 28.60-1.26L28.60-1.26zM31.96-16.30L31.96-3.11L31.96-3.11Q32.51-2.90 33.14-2.75L33.14-2.75L33.14-2.75Q33.77-2.60 34.50-2.50L34.50-2.50L34.50-2.50Q35.24-2.39 36.08-2.39L36.08-2.39L36.08-2.39Q38.01-2.39 39.31-2.94L39.31-2.94L39.31-2.94Q40.61-3.49 41.37-4.54L41.37-4.54L41.37-4.54Q42.13-5.59 42.44-7.08L42.44-7.08L42.44-7.08Q42.76-8.57 42.76-10.42L42.76-10.42L42.76-10.42Q42.76-11.89 42.44-13.36L42.44-13.36L42.44-13.36Q42.13-14.83 41.45-15.98L41.45-15.98L41.45-15.98Q40.78-17.14 39.80-17.87L39.80-17.87L39.80-17.87Q38.81-18.61 37.51-18.61L37.51-18.61L37.51-18.61Q36.62-18.61 35.66-18.25L35.66-18.25L35.66-18.25Q34.69-17.89 33.85-17.43L33.85-17.43L33.85-17.43Q32.89-16.93 31.96-16.30L31.96-16.30" fill="#632a2a" stroke="none" stroke-width="none" transform="translate(-86.98001098632812,12.248481009347088)" data-darkreader-inline-fill="" data-darkreader-inline-stroke="" style="--darkreader-inline-fill:#c78f8f; --darkreader-inline-stroke:none; fill: rgb(99, 42, 42);"></path></g><g class="path" style="transform: scale(0.91); transform-origin: -26.71px 1.74848px; animation: 0.70922s linear -0.405268s infinite normal forwards running breath-82572646-a8c2-4063-afeb-c8ef7a272912;"><path d="M53.63-10.46L53.63-10.46L53.63-10.46Q53.63-6.38 55.46-4.39L55.46-4.39L55.46-4.39Q57.29-2.39 60.40-2.39L60.40-2.39L60.40-2.39Q63.46-2.39 65.18-4.37L65.18-4.37L65.18-4.37Q66.91-6.34 66.91-10.29L66.91-10.29L66.91-10.29Q66.91-14.49 65.08-16.55L65.08-16.55L65.08-16.55Q63.25-18.61 60.10-18.61L60.10-18.61L60.10-18.61Q56.95-18.61 55.29-16.57L55.29-16.57L55.29-16.57Q53.63-14.53 53.63-10.46zM50.06-10.50L50.06-10.50L50.06-10.50Q50.06-13.69 51.07-15.81L51.07-15.81L51.07-15.81Q52.08-17.93 53.63-19.21L53.63-19.21L53.63-19.21Q55.19-20.50 56.97-21.02L56.97-21.02L56.97-21.02Q58.76-21.55 60.35-21.55L60.35-21.55L60.35-21.55Q61.87-21.55 63.65-21.06L63.65-21.06L63.65-21.06Q65.44-20.58 66.95-19.34L66.95-19.34L66.95-19.34Q68.46-18.10 69.47-16.02L69.47-16.02L69.47-16.02Q70.48-13.94 70.48-10.75L70.48-10.75L70.48-10.75Q70.48-7.43 69.45-5.25L69.45-5.25L69.45-5.25Q68.42-3.07 66.86-1.79L66.86-1.79L66.86-1.79Q65.31-0.50 63.50 0.02L63.50 0.02L63.50 0.02Q61.70 0.55 60.14 0.55L60.14 0.55L60.14 0.55Q58.55 0.55 56.78 0.04L56.78 0.04L56.78 0.04Q55.02-0.46 53.53-1.70L53.53-1.70L53.53-1.70Q52.04-2.94 51.05-5.08L51.05-5.08L51.05-5.08Q50.06-7.22 50.06-10.50" fill="#632a2a" stroke="none" stroke-width="none" transform="translate(-86.98001098632812,12.248481009347088)" data-darkreader-inline-fill="" data-darkreader-inline-stroke="" style="--darkreader-inline-fill:#c78f8f; --darkreader-inline-stroke:none; fill: rgb(99, 42, 42);"></path></g><g class="path" style="transform: scale(0.91); transform-origin: -3.59001px 1.95848px; animation: 0.70922s linear -0.303951s infinite normal forwards running breath-82572646-a8c2-4063-afeb-c8ef7a272912;"><path d="M88.24 0.34L87.99-2.31L87.91-2.31L87.91-2.31Q87.53-2.02 86.81-1.53L86.81-1.53L86.81-1.53Q86.10-1.05 85.18-0.59L85.18-0.59L85.18-0.59Q84.25-0.13 83.14 0.21L83.14 0.21L83.14 0.21Q82.03 0.55 80.89 0.55L80.89 0.55L80.89 0.55Q79.34 0.55 78.25 0.15L78.25 0.15L78.25 0.15Q77.15-0.25 76.48-1.18L76.48-1.18L76.48-1.18Q75.81-2.10 75.52-3.61L75.52-3.61L75.52-3.61Q75.22-5.12 75.22-7.39L75.22-7.39L75.22-21.13L78.58-21.13L78.58-7.90L78.58-7.90Q78.58-6.64 78.62-5.63L78.62-5.63L78.62-5.63Q78.67-4.62 78.92-3.91L78.92-3.91L78.92-3.91Q79.17-3.19 79.74-2.79L79.74-2.79L79.74-2.79Q80.30-2.39 81.35-2.39L81.35-2.39L81.35-2.39Q82.45-2.39 83.62-2.86L83.62-2.86L83.62-2.86Q84.80-3.32 85.76-3.91L85.76-3.91L85.76-3.91Q86.90-4.58 87.99-5.42L87.99-5.42L87.99-21.13L91.35-21.13L91.35-2.73L91.35-2.73Q91.39-1.22 91.56 0L91.56 0L88.24 0.34" fill="#632a2a" stroke="none" stroke-width="none" transform="translate(-86.98001098632812,12.248481009347088)" data-darkreader-inline-fill="" data-darkreader-inline-stroke="" style="--darkreader-inline-fill:#c78f8f; --darkreader-inline-stroke:none; fill: rgb(99, 42, 42);"></path></g><g class="path" style="transform: scale(0.91); transform-origin: 15.06px -1.19152px; animation: 0.70922s linear -0.202634s infinite normal forwards running breath-82572646-a8c2-4063-afeb-c8ef7a272912;"><path d="M98.99-27.01L102.35-27.43L102.35-21.13L108.44-21.13L108.44-18.40L102.35-18.40L102.35-7.18L102.35-7.18Q102.35-5.80 102.42-4.87L102.42-4.87L102.42-4.87Q102.48-3.95 102.69-3.40L102.69-3.40L102.69-3.40Q102.90-2.86 103.28-2.63L103.28-2.63L103.28-2.63Q103.66-2.39 104.24-2.39L104.24-2.39L104.24-2.39Q105.84-2.44 107.94-3.57L107.94-3.57L108.95-1.01L108.95-1.01Q107.56-0.08 106.36 0.23L106.36 0.23L106.36 0.23Q105.17 0.55 103.99 0.55L103.99 0.55L103.99 0.55Q101.22 0.55 100.11-1.03L100.11-1.03L100.11-1.03Q98.99-2.60 98.99-6.26L98.99-6.26L98.99-18.40L95.13-18.40L95.13-21.13L98.99-21.13L98.99-27.01" fill="#632a2a" stroke="none" stroke-width="none" transform="translate(-86.98001098632812,12.248481009347088)" data-darkreader-inline-fill="" data-darkreader-inline-stroke="" style="--darkreader-inline-fill:#c78f8f; --darkreader-inline-stroke:none; fill: rgb(99, 42, 42);"></path></g><g class="path" style="transform: scale(0.91); transform-origin: 50.335px -2.07152px; animation: 0.70922s linear -0.101317s infinite normal forwards running breath-82572646-a8c2-4063-afeb-c8ef7a272912;"><path d="M122.30 0L123.82-28.64L128.31-28.64L134.78-11.59L134.78-11.59Q135.32-10.12 135.79-8.88L135.79-8.88L135.79-8.88Q136.25-7.64 136.58-6.68L136.58-6.68L136.58-6.68Q137.00-5.59 137.30-4.66L137.30-4.66L137.38-4.66L137.38-4.66Q137.63-5.59 138.01-6.68L138.01-6.68L138.01-6.68Q138.35-7.64 138.77-8.88L138.77-8.88L138.77-8.88Q139.19-10.12 139.78-11.59L139.78-11.59L146.37-28.64L150.86-28.64L152.33 0L148.76 0L148.05-15.75L148.05-15.75Q147.97-17.81 147.92-19.24L147.92-19.24L147.92-19.24Q147.88-20.66 147.88-21.59L147.88-21.59L147.88-23.35L147.80-23.35L147.80-23.35Q147.55-22.72 147.17-21.63L147.17-21.63L147.17-21.63Q146.83-20.71 146.31-19.26L146.31-19.26L146.31-19.26Q145.78-17.81 145.03-15.75L145.03-15.75L139.10 0L135.53 0L129.57-15.75L129.57-15.75Q128.77-17.77 128.27-19.21L128.27-19.21L128.27-19.21Q127.76-20.66 127.43-21.59L127.43-21.59L127.43-21.59Q127.05-22.68 126.84-23.35L126.84-23.35L126.76-23.35L126.76-23.35Q126.80-22.68 126.84-21.59L126.84-21.59L126.84-21.59Q126.88-19.82 126.71-15.75L126.71-15.75L125.87 0L122.30 0" fill="#632a2a" stroke="none" stroke-width="none" transform="translate(-86.98001098632812,12.248481009347088)" data-darkreader-inline-fill="" data-darkreader-inline-stroke="" style="--darkreader-inline-fill:#c78f8f; --darkreader-inline-stroke:none; fill: rgb(99, 42, 42);"></path></g><g class="path" style="transform: scale(0.91); transform-origin: 78.855px 1.74848px; animation: 0.70922s linear 0s infinite normal forwards running breath-82572646-a8c2-4063-afeb-c8ef7a272912;"><path d="M173.08-3.32L173.71-0.50L173.71-0.50Q172.75-0.21 171.72 0L171.72 0L171.72 0Q170.69 0.21 169.45 0.38L169.45 0.38L169.45 0.38Q168.21 0.55 166.87 0.55L166.87 0.55L166.87 0.55Q164.77 0.55 162.96-0.04L162.96-0.04L162.96-0.04Q161.15-0.63 159.81-1.93L159.81-1.93L159.81-1.93Q158.47-3.23 157.69-5.31L157.69-5.31L157.69-5.31Q156.91-7.39 156.91-10.42L156.91-10.42L156.91-10.42Q156.91-13.15 157.67-15.23L157.67-15.23L157.67-15.23Q158.42-17.30 159.75-18.71L159.75-18.71L159.75-18.71Q161.07-20.12 162.85-20.83L162.85-20.83L162.85-20.83Q164.64-21.55 166.74-21.55L166.74-21.55L166.74-21.55Q168.80-21.55 170.31-20.75L170.31-20.75L170.31-20.75Q171.82-19.95 172.81-18.59L172.81-18.59L172.81-18.59Q173.80-17.22 174.28-15.39L174.28-15.39L174.28-15.39Q174.76-13.57 174.76-11.55L174.76-11.55L174.13-9.70L160.57-9.70L160.57-9.70Q160.57-8.40 160.90-7.10L160.90-7.10L160.90-7.10Q161.24-5.80 162.06-4.75L162.06-4.75L162.06-4.75Q162.88-3.70 164.20-3.05L164.20-3.05L164.20-3.05Q165.52-2.39 167.50-2.39L167.50-2.39L167.50-2.39Q168.76-2.39 169.81-2.54L169.81-2.54L169.81-2.54Q170.86-2.69 171.63-2.88L171.63-2.88L171.63-2.88Q172.41-3.07 173.08-3.32L173.08-3.32zM160.69-12.39L171.28-12.39L171.28-12.39Q171.28-12.68 171.15-13.69L171.15-13.69L171.15-13.69Q171.02-14.70 170.56-15.79L170.56-15.79L170.56-15.79Q170.10-16.88 169.13-17.75L169.13-17.75L169.13-17.75Q168.17-18.61 166.57-18.61L166.57-18.61L166.57-18.61Q164.81-18.61 163.67-17.87L163.67-17.87L163.67-17.87Q162.54-17.14 161.87-16.13L161.87-16.13L161.87-16.13Q161.20-15.12 160.94-14.07L160.94-14.07L160.94-14.07Q160.69-13.02 160.69-12.39L160.69-12.39" fill="#632a2a" stroke="none" stroke-width="none" transform="translate(-86.98001098632812,12.248481009347088)" data-darkreader-inline-fill="" data-darkreader-inline-stroke="" style="--darkreader-inline-fill:#c78f8f; --darkreader-inline-stroke:none; fill: rgb(99, 42, 42);"></path></g></g>
</g>
</g>
<style id="breath-82572646-a8c2-4063-afeb-c8ef7a272912" data-anikit="">@keyframes breath-82572646-a8c2-4063-afeb-c8ef7a272912
{
  0% {
    animation-timing-function: cubic-bezier(0.9647,0.2413,-0.0705,0.7911);
    transform: scale(0.9099999999999999);
  }
  51% {
    animation-timing-function: cubic-bezier(0.9226,0.2631,-0.0308,0.7628);
    transform: scale(1.02994);
  }
  100% {
    transform: scale(0.9099999999999999);
  }
}</style></svg>