<?xml version="1.0" encoding="utf-8"?>
<svg xmlns="http://www.w3.org/2000/svg" style="margin: auto; background: none; display: block; --darkreader-inline-bgimage: initial; --darkreader-inline-bgcolor:#181a1b; shape-rendering: auto;" width="289" height="108" preserveAspectRatio="xMidYMid" data-darkreader-inline-bgimage="" data-darkreader-inline-bgcolor="">
<style type="text/css">
  text {
    text-anchor: middle; font-size: 42px; opacity: 0;
  }
</style><style class="darkreader darkreader--sync" media="screen"></style>
<g style="transform-origin: 144.5px 54px; transform: scale(1.68);">
<g transform="translate(144.5,54)">
  <g transform="translate(0,0)"><g class="path" style="transform: matrix(1, 0, 0, 1, 0, 14.925); opacity: 0.05; transform-origin: -60.395px -2.26462px; animation: 1s linear 0.4s 1 normal forwards running float-btt-in-c70d3d09-d23c-40b2-81d0-2d7ae135cd5c;"><path d="M2.20 0L2.20-17.05L4.30-17.05L4.30-9.68L12.93-9.68L12.93-17.05L15.03-17.05L15.03 0L12.93 0L12.93-7.80L4.30-7.80L4.30 0L2.20 0" fill="#51cacc" stroke="none" stroke-width="none" transform="translate(-69.00997924804688,6.260377848307302)" data-darkreader-inline-fill="" data-darkreader-inline-stroke="" style="--darkreader-inline-fill:#59c4c6; --darkreader-inline-stroke:none; fill: rgb(81, 202, 204);"></path></g><g class="path" style="transform: matrix(1, 0, 0, 1, 0, 14.925); opacity: 0.05; transform-origin: -45.57px 0.0103779px; animation: 1s linear 0.933333s 1 normal forwards running float-btt-in-c70d3d09-d23c-40b2-81d0-2d7ae135cd5c;"><path d="M27.75-1.98L28.13-0.30L28.13-0.30Q27.55-0.13 26.94 0L26.94 0L26.94 0Q26.33 0.13 25.59 0.23L25.59 0.23L25.59 0.23Q24.85 0.33 24.05 0.33L24.05 0.33L24.05 0.33Q22.80 0.33 21.73-0.03L21.73-0.03L21.73-0.03Q20.65-0.38 19.85-1.15L19.85-1.15L19.85-1.15Q19.05-1.93 18.59-3.16L18.59-3.16L18.59-3.16Q18.13-4.40 18.13-6.20L18.13-6.20L18.13-6.20Q18.13-7.83 18.58-9.06L18.58-9.06L18.58-9.06Q19.03-10.30 19.81-11.14L19.81-11.14L19.81-11.14Q20.60-11.98 21.66-12.40L21.66-12.40L21.66-12.40Q22.73-12.83 23.98-12.83L23.98-12.83L23.98-12.83Q25.20-12.83 26.10-12.35L26.10-12.35L26.10-12.35Q27.00-11.88 27.59-11.06L27.59-11.06L27.59-11.06Q28.18-10.25 28.46-9.16L28.46-9.16L28.46-9.16Q28.75-8.08 28.75-6.88L28.75-6.88L28.38-5.78L20.30-5.78L20.30-5.78Q20.30-5 20.50-4.23L20.50-4.23L20.50-4.23Q20.70-3.45 21.19-2.83L21.19-2.83L21.19-2.83Q21.68-2.20 22.46-1.81L22.46-1.81L22.46-1.81Q23.25-1.43 24.43-1.43L24.43-1.43L24.43-1.43Q25.18-1.43 25.80-1.51L25.80-1.51L25.80-1.51Q26.43-1.60 26.89-1.71L26.89-1.71L26.89-1.71Q27.35-1.83 27.75-1.98L27.75-1.98zM20.38-7.38L26.68-7.38L26.68-7.38Q26.68-7.55 26.60-8.15L26.60-8.15L26.60-8.15Q26.53-8.75 26.25-9.40L26.25-9.40L26.25-9.40Q25.98-10.05 25.40-10.56L25.40-10.56L25.40-10.56Q24.83-11.08 23.88-11.08L23.88-11.08L23.88-11.08Q22.83-11.08 22.15-10.64L22.15-10.64L22.15-10.64Q21.48-10.20 21.08-9.60L21.08-9.60L21.08-9.60Q20.68-9 20.53-8.38L20.53-8.38L20.53-8.38Q20.38-7.75 20.38-7.38L20.38-7.38" fill="#51cacc" stroke="none" stroke-width="none" transform="translate(-69.00997924804688,6.260377848307302)" data-darkreader-inline-fill="" data-darkreader-inline-stroke="" style="--darkreader-inline-fill:#59c4c6; --darkreader-inline-stroke:none; fill: rgb(81, 202, 204);"></path></g><g class="path" style="transform: matrix(1, 0, 0, 1, 0, 14.925); opacity: 0.05; transform-origin: -33.135px 2.99538px; animation: 1s linear 0.733333s 1 normal forwards running float-btt-in-c70d3d09-d23c-40b2-81d0-2d7ae135cd5c;"><path d="M34.88-0.33L29.85-12.58L31.98-12.58L34.33-6.90L34.33-6.90Q34.68-6.08 34.96-5.25L34.96-5.25L34.96-5.25Q35.25-4.42 35.48-3.78L35.48-3.78L35.48-3.78Q35.75-3 35.95-2.27L35.95-2.27L35.98-2.27L35.98-2.27Q36.20-3 36.48-3.78L36.48-3.78L36.48-3.78Q36.70-4.42 37.00-5.25L37.00-5.25L37.00-5.25Q37.30-6.08 37.63-6.90L37.63-6.90L39.80-12.58L41.90-12.58L35.95 2.43L35.95 2.43Q35.60 3.35 35.04 4.03L35.04 4.03L35.04 4.03Q34.48 4.70 33.95 5.15L33.95 5.15L33.95 5.15Q33.33 5.68 32.65 6.05L32.65 6.05L31.68 4.33L31.68 4.33Q32.20 4.08 32.65 3.70L32.65 3.70L32.65 3.70Q33.05 3.38 33.45 2.89L33.45 2.89L33.45 2.89Q33.85 2.40 34.10 1.73L34.10 1.73L34.88-0.33" fill="#51cacc" stroke="none" stroke-width="none" transform="translate(-69.00997924804688,6.260377848307302)" data-darkreader-inline-fill="" data-darkreader-inline-stroke="" style="--darkreader-inline-fill:#59c4c6; --darkreader-inline-stroke:none; fill: rgb(81, 202, 204);"></path></g><g class="path" style="transform: matrix(1, 0, 0, 1, 0, 14.925); opacity: 0.05; transform-origin: -25.17px 6.23538px; animation: 1s linear 0.0666667s 1 normal forwards running float-btt-in-c70d3d09-d23c-40b2-81d0-2d7ae135cd5c;"><path d="M42.35 2.90L43.20-3.25L45.33-3.25L43.93 3.20L42.35 2.90" fill="#51cacc" stroke="none" stroke-width="none" transform="translate(-69.00997924804688,6.260377848307302)" data-darkreader-inline-fill="" data-darkreader-inline-stroke="" style="--darkreader-inline-fill:#59c4c6; --darkreader-inline-stroke:none; fill: rgb(81, 202, 204);"></path></g><g class="path" style="transform: matrix(1, 0, 0, 1, 0, 14.925); opacity: 0.05; transform-origin: -13.78px -0.154622px; animation: 1s linear 0.133333s 1 normal forwards running float-btt-in-c70d3d09-d23c-40b2-81d0-2d7ae135cd5c;"><path d="M54.23 0L54.23-12.60L56.23-12.83L56.23 0L54.23 0" fill="#51cacc" stroke="none" stroke-width="none" transform="translate(-69.00997924804688,6.260377848307302)" data-darkreader-inline-fill="" data-darkreader-inline-stroke="" style="--darkreader-inline-fill:#59c4c6; --darkreader-inline-stroke:none; fill: rgb(81, 202, 204);"></path></g><g class="path" style="transform: matrix(1, 0, 0, 1, 0, 14.925); opacity: 0.05; transform-origin: -13.72px -9.91962px; animation: 1s linear 0.266667s 1 normal forwards running float-btt-in-c70d3d09-d23c-40b2-81d0-2d7ae135cd5c;"><path d="M53.90-16.18L53.90-16.18L53.90-16.18Q53.90-16.75 54.29-17.14L54.29-17.14L54.29-17.14Q54.68-17.53 55.25-17.53L55.25-17.53L55.25-17.53Q55.85-17.53 56.26-17.14L56.26-17.14L56.26-17.14Q56.68-16.75 56.68-16.18L56.68-16.18L56.68-16.18Q56.68-15.60 56.26-15.21L56.26-15.21L56.26-15.21Q55.85-14.83 55.25-14.83L55.25-14.83L55.25-14.83Q54.68-14.83 54.29-15.21L54.29-15.21L54.29-15.21Q53.90-15.60 53.90-16.18" fill="#51cacc" stroke="none" stroke-width="none" transform="translate(-69.00997924804688,6.260377848307302)" data-darkreader-inline-fill="" data-darkreader-inline-stroke="" style="--darkreader-inline-fill:#59c4c6; --darkreader-inline-stroke:none; fill: rgb(81, 202, 204);"></path></g><g class="path" style="transform: matrix(1, 0, 0, 1, 0, 14.925); opacity: 0.05; transform-origin: -8.47998px -9.62962px; animation: 1s linear 0.866667s 1 normal forwards running float-btt-in-c70d3d09-d23c-40b2-81d0-2d7ae135cd5c;"><path d="M59.53-12.83L59.53-18.95L61.53-18.95L61.53-12.83L59.53-12.83" fill="#51cacc" stroke="none" stroke-width="none" transform="translate(-69.00997924804688,6.260377848307302)" data-darkreader-inline-fill="" data-darkreader-inline-stroke="" style="--darkreader-inline-fill:#59c4c6; --darkreader-inline-stroke:none; fill: rgb(81, 202, 204);"></path></g><g class="path" style="transform: matrix(1, 0, 0, 1, 0, 14.925); opacity: 0.05; transform-origin: 4.33002px -0.154622px; animation: 1s linear 0.8s 1 normal forwards running float-btt-in-c70d3d09-d23c-40b2-81d0-2d7ae135cd5c;"><path d="M64.85 0L64.85-10.30L64.85-10.30Q64.85-11.15 64.70-12.35L64.70-12.35L66.58-12.60L66.85-11.03L66.85-11.03Q67.53-11.53 68.18-11.90L68.18-11.90L68.18-11.90Q68.83-12.28 69.58-12.55L69.58-12.55L69.58-12.55Q70.33-12.83 71.10-12.83L71.10-12.83L71.10-12.83Q72.35-12.83 73.08-12.39L73.08-12.39L73.08-12.39Q73.80-11.95 74.15-10.90L74.15-10.90L74.15-10.90Q75.18-11.63 76.29-12.23L76.29-12.23L76.29-12.23Q77.40-12.83 78.60-12.83L78.60-12.83L78.60-12.83Q79.53-12.83 80.18-12.59L80.18-12.59L80.18-12.59Q80.83-12.35 81.23-11.80L81.23-11.80L81.23-11.80Q81.63-11.25 81.80-10.35L81.80-10.35L81.80-10.35Q81.98-9.45 81.98-8.10L81.98-8.10L81.98 0L79.98 0L79.98-7.88L79.98-7.88Q79.98-8.63 79.95-9.21L79.95-9.21L79.95-9.21Q79.93-9.80 79.78-10.21L79.78-10.21L79.78-10.21Q79.63-10.63 79.29-10.85L79.29-10.85L79.29-10.85Q78.95-11.08 78.33-11.08L78.33-11.08L78.33-11.08Q77.75-11.08 77.24-10.91L77.24-10.91L77.24-10.91Q76.73-10.75 76.18-10.45L76.18-10.45L76.18-10.45Q75.63-10.15 74.48-9.22L74.48-9.22L74.48 0L72.48 0L72.48-7.88L72.48-7.88Q72.48-8.63 72.45-9.21L72.45-9.21L72.45-9.21Q72.43-9.80 72.28-10.21L72.28-10.21L72.28-10.21Q72.13-10.63 71.79-10.85L71.79-10.85L71.79-10.85Q71.45-11.08 70.83-11.08L70.83-11.08L70.83-11.08Q70.18-11.08 69.48-10.80L69.48-10.80L69.48-10.80Q68.78-10.53 68.15-10.15L68.15-10.15L68.15-10.15Q67.53-9.78 66.85-9.28L66.85-9.28L66.85 0L64.85 0" fill="#51cacc" stroke="none" stroke-width="none" transform="translate(-69.00997924804688,6.260377848307302)" data-darkreader-inline-fill="" data-darkreader-inline-stroke="" style="--darkreader-inline-fill:#59c4c6; --darkreader-inline-stroke:none; fill: rgb(81, 202, 204);"></path></g><g class="path" style="transform: matrix(1, 0, 0, 1, 0, 14.925); opacity: 0.05; transform-origin: 29.045px -2.26462px; animation: 1s linear 0s 1 normal forwards running float-btt-in-c70d3d09-d23c-40b2-81d0-2d7ae135cd5c;"><path d="M91.63 0L91.63-17.05L93.63-17.05L102.58-3.53L102.63-3.53L102.63-3.53Q102.58-4.25 102.55-5.08L102.55-5.08L102.55-5.08Q102.50-5.78 102.49-6.69L102.49-6.69L102.49-6.69Q102.48-7.60 102.48-8.55L102.48-8.55L102.48-17.05L104.48-17.05L104.48 0L102.48 0L93.53-13.58L93.48-13.58L93.48-13.58Q93.50-12.83 93.55-12L93.55-12L93.55-12Q93.58-11.28 93.60-10.38L93.60-10.38L93.60-10.38Q93.63-9.47 93.63-8.53L93.63-8.53L93.63 0L91.63 0" fill="#51cacc" stroke="none" stroke-width="none" transform="translate(-69.00997924804688,6.260377848307302)" data-darkreader-inline-fill="" data-darkreader-inline-stroke="" style="--darkreader-inline-fill:#59c4c6; --darkreader-inline-stroke:none; fill: rgb(81, 202, 204);"></path></g><g class="path" style="transform: matrix(1, 0, 0, 1, 0, 14.925); opacity: 0.05; transform-origin: 40.34px -0.154622px; animation: 1s linear 0.533333s 1 normal forwards running float-btt-in-c70d3d09-d23c-40b2-81d0-2d7ae135cd5c;"><path d="M108.35 0L108.35-12.60L110.35-12.83L110.35 0L108.35 0" fill="#51cacc" stroke="none" stroke-width="none" transform="translate(-69.00997924804688,6.260377848307302)" data-darkreader-inline-fill="" data-darkreader-inline-stroke="" style="--darkreader-inline-fill:#59c4c6; --darkreader-inline-stroke:none; fill: rgb(81, 202, 204);"></path></g><g class="path" style="transform: matrix(1, 0, 0, 1, 0, 14.925); opacity: 0.05; transform-origin: 40.405px -9.91962px; animation: 1s linear 0.666667s 1 normal forwards running float-btt-in-c70d3d09-d23c-40b2-81d0-2d7ae135cd5c;"><path d="M108.03-16.18L108.03-16.18L108.03-16.18Q108.03-16.75 108.41-17.14L108.41-17.14L108.41-17.14Q108.80-17.53 109.38-17.53L109.38-17.53L109.38-17.53Q109.98-17.53 110.39-17.14L110.39-17.14L110.39-17.14Q110.80-16.75 110.80-16.18L110.80-16.18L110.80-16.18Q110.80-15.60 110.39-15.21L110.39-15.21L110.39-15.21Q109.98-14.83 109.38-14.83L109.38-14.83L109.38-14.83Q108.80-14.83 108.41-15.21L108.41-15.21L108.41-15.21Q108.03-15.60 108.03-16.18" fill="#51cacc" stroke="none" stroke-width="none" transform="translate(-69.00997924804688,6.260377848307302)" data-darkreader-inline-fill="" data-darkreader-inline-stroke="" style="--darkreader-inline-fill:#59c4c6; --darkreader-inline-stroke:none; fill: rgb(81, 202, 204);"></path></g><g class="path" style="transform: matrix(1, 0, 0, 1, 0, 14.925); opacity: 0.05; transform-origin: 48.83px 0.0103779px; animation: 1s linear 0.6s 1 normal forwards running float-btt-in-c70d3d09-d23c-40b2-81d0-2d7ae135cd5c;"><path d="M122.15-12.43L121.75-10.75L121.75-10.75Q121.33-10.85 120.58-10.96L120.58-10.96L120.58-10.96Q119.83-11.08 119.05-11.08L119.05-11.08L119.05-11.08Q117.93-11.08 117.21-10.63L117.21-10.63L117.21-10.63Q116.50-10.18 116.10-9.46L116.10-9.46L116.10-9.46Q115.70-8.75 115.55-7.89L115.55-7.89L115.55-7.89Q115.40-7.03 115.40-6.20L115.40-6.20L115.40-6.20Q115.40-4.93 115.73-4.01L115.73-4.01L115.73-4.01Q116.05-3.10 116.59-2.53L116.59-2.53L116.59-2.53Q117.13-1.95 117.83-1.69L117.83-1.69L117.83-1.69Q118.53-1.43 119.30-1.43L119.30-1.43L119.30-1.43Q119.83-1.43 120.31-1.49L120.31-1.49L120.31-1.49Q120.80-1.55 121.21-1.64L121.21-1.64L121.21-1.64Q121.63-1.73 122-1.85L122-1.85L122.40-0.18L122.40-0.18Q121.88-0.03 121.43 0.08L121.43 0.08L121.43 0.08Q120.98 0.18 120.36 0.25L120.36 0.25L120.36 0.25Q119.75 0.33 119.05 0.33L119.05 0.33L119.05 0.33Q117.68 0.33 116.60-0.03L116.60-0.03L116.60-0.03Q115.53-0.38 114.79-1.15L114.79-1.15L114.79-1.15Q114.05-1.93 113.66-3.18L113.66-3.18L113.66-3.18Q113.28-4.42 113.28-6.23L113.28-6.23L113.28-6.23Q113.28-7.98 113.76-9.24L113.76-9.24L113.76-9.24Q114.25-10.50 115.05-11.29L115.05-11.29L115.05-11.29Q115.85-12.08 116.89-12.45L116.89-12.45L116.89-12.45Q117.93-12.83 119.05-12.83L119.05-12.83L119.05-12.83Q119.65-12.83 120.21-12.76L120.21-12.76L120.21-12.76Q120.78-12.70 121.20-12.63L121.20-12.63L121.20-12.63Q121.70-12.53 122.15-12.43L122.15-12.43" fill="#51cacc" stroke="none" stroke-width="none" transform="translate(-69.00997924804688,6.260377848307302)" data-darkreader-inline-fill="" data-darkreader-inline-stroke="" style="--darkreader-inline-fill:#59c4c6; --darkreader-inline-stroke:none; fill: rgb(81, 202, 204);"></path></g><g class="path" style="transform: matrix(1, 0, 0, 1, 0, 14.925); opacity: 0.05; transform-origin: 61.13px -3.21462px; animation: 1s linear 0.2s 1 normal forwards running float-btt-in-c70d3d09-d23c-40b2-81d0-2d7ae135cd5c;"><path d="M124.88 0L124.88-18.73L126.88-18.95L126.88-7.68L132.45-12.58L135.20-12.58L129.75-7.80L135.40 0L132.88 0L128.28-6.53L126.88-5.30L126.88 0L124.88 0" fill="#51cacc" stroke="none" stroke-width="none" transform="translate(-69.00997924804688,6.260377848307302)" data-darkreader-inline-fill="" data-darkreader-inline-stroke="" style="--darkreader-inline-fill:#59c4c6; --darkreader-inline-stroke:none; fill: rgb(81, 202, 204);"></path></g><g class="path" style="transform: matrix(1, 0, 0, 1, 0, 14.925); opacity: 0.05; transform-origin: 69.685px -5.25462px; animation: 1s linear 0.466667s 1 normal forwards running float-btt-in-c70d3d09-d23c-40b2-81d0-2d7ae135cd5c;"><path d="M137.92-4.55L137.42-18.20L139.97-18.48L139.55-4.55L137.92-4.55" fill="#51cacc" stroke="none" stroke-width="none" transform="translate(-69.00997924804688,6.260377848307302)" data-darkreader-inline-fill="" data-darkreader-inline-stroke="" style="--darkreader-inline-fill:#59c4c6; --darkreader-inline-stroke:none; fill: rgb(81, 202, 204);"></path></g><g class="path" style="transform: matrix(1, 0, 0, 1, 0, 14.925); opacity: 0.05; transform-origin: 69.7px 4.78538px; animation: 1s linear 0.333333s 1 normal forwards running float-btt-in-c70d3d09-d23c-40b2-81d0-2d7ae135cd5c;"><path d="M137.20-1.48L137.20-1.48L137.20-1.48Q137.20-2.08 137.63-2.51L137.63-2.51L137.63-2.51Q138.05-2.95 138.67-2.95L138.67-2.95L138.67-2.95Q139.32-2.95 139.78-2.51L139.78-2.51L139.78-2.51Q140.22-2.08 140.22-1.48L140.22-1.48L140.22-1.48Q140.22-0.85 139.78-0.43L139.78-0.43L139.78-0.43Q139.32 0 138.67 0L138.67 0L138.67 0Q138.05 0 137.63-0.43L137.63-0.43L137.63-0.43Q137.20-0.85 137.20-1.48" fill="#51cacc" stroke="none" stroke-width="none" transform="translate(-69.00997924804688,6.260377848307302)" data-darkreader-inline-fill="" data-darkreader-inline-stroke="" style="--darkreader-inline-fill:#59c4c6; --darkreader-inline-stroke:none; fill: rgb(81, 202, 204);"></path></g></g>
</g>
</g>
<style id="float-btt-in-c70d3d09-d23c-40b2-81d0-2d7ae135cd5c" data-anikit="">@keyframes float-btt-in-c70d3d09-d23c-40b2-81d0-2d7ae135cd5c
{
  0% {
    animation-timing-function: cubic-bezier(0.2242,0.7499,0.3142,0.8148);
    transform: translate(0px,14.925px) rotate(0deg) scale(1,1) skewX(0deg) skewY(0deg);
    opacity: 0.05;
  }
  100% {
    transform: translate(0px,0px) rotate(0deg) scale(1,1) skewX(0deg) skewY(0deg);
    opacity: 1;
  }
}</style></svg>